<svg width="89" height="78" viewBox="0 0 89 78" fill="none" xmlns="http://www.w3.org/2000/svg">
<path d="M83.4408 19.5891C83.2024 20.0213 82.8584 20.386 82.4408 20.6491C84.0108 20.6491 83.4408 19.5891 83.4408 19.5891Z" fill="#E22333"/>
<path d="M54.9108 62.1591C55.1138 62.5622 55.4168 62.9065 55.7908 63.1591C56.5261 63.5355 57.2199 63.988 57.8608 64.5091C58.0608 64.7091 58.2708 65.0191 58.1608 65.0991C58.0508 65.1791 57.7708 65.0991 57.1608 64.5291C56.5508 63.9591 56.2308 64.2991 56.1608 64.6491C56.1931 65.2887 56.1931 65.9295 56.1608 66.5691C56.0608 67.2091 55.7408 67.2991 55.7708 66.5691C55.8008 65.8391 55.4008 64.2091 54.6908 64.2691C54.461 64.314 54.2474 64.4191 54.0716 64.5737C53.8959 64.7284 53.7645 64.9269 53.6908 65.1491C53.5208 65.4991 53.2608 65.8391 53.3408 65.5491C53.3641 65.0182 53.2577 64.4896 53.0308 64.0091C52.6508 63.1891 52.5308 63.0991 52.0908 63.0091C51.6508 62.9191 51.6108 62.5691 52.3708 62.2391C52.7354 62.0328 53.1432 61.9146 53.5616 61.8937C53.98 61.8729 54.3975 61.9501 54.7808 62.1191L54.9108 62.1591ZM87.7808 20.9591C87.5608 18.8091 86.4108 18.6391 85.2808 18.1791C84.1508 17.7191 82.1208 17.1791 81.3708 16.6891C80.6143 16.2924 79.79 16.0414 78.9408 15.9491C78.0408 15.8091 75.7708 15.9491 74.7308 15.7891C73.6908 15.6291 72.0908 15.3191 71.7308 15.5491C71.4435 16.1169 71.0332 16.6135 70.5298 17.0027C70.0264 17.3919 69.4426 17.664 68.8208 17.7991C67.2508 18.2891 65.2608 18.7991 63.8208 19.2091C63.8208 18.4591 63.9008 16.2091 65.8208 12.9191C68.2208 8.91911 68.8908 7.55911 67.8208 6.50911C66.7508 5.45911 61.9208 7.86911 61.9208 7.86911C61.9947 7.48592 62.0448 7.09851 62.0708 6.70911C63.4608 5.88911 68.7308 2.95911 70.8808 4.15911C73.3708 5.54911 70.3208 9.40911 70.0408 9.76911C69.7608 10.1291 66.3708 15.1991 65.6908 17.2591L67.1108 16.8691C67.1108 16.8691 70.2608 11.8091 71.3508 10.4691C72.4408 9.12911 74.9608 5.27911 72.9408 3.57911C70.9208 1.87911 67.6608 2.57911 62.1108 6.11911C62.1708 4.27911 61.8108 1.51911 59.2708 0.559112C55.1108 -1.03089 40.9608 0.0991144 24.8608 12.9291C20.4926 16.1225 16.4015 19.6784 12.6308 23.5591C6.94078 29.4591 1.63078 35.5591 3.33078 36.4991C5.19078 37.4991 10.0108 32.0991 10.5808 31.4991C10.5808 31.4991 15.6408 31.8091 21.9708 26.3891C24.5048 27.7661 27.4782 28.0929 30.2508 27.2991C30.2508 27.2991 28.3508 32.0191 33.9808 31.6291C33.9808 31.6291 33.5008 33.9291 35.4108 33.5391C35.4108 33.5391 24.2808 40.0591 24.4708 40.3191C24.6608 40.5791 30.1708 38.1491 32.8708 36.7791C34.4908 35.9591 35.4608 35.1691 36.7608 34.9591C41.1173 34.4851 45.3305 33.1238 49.1408 30.9591C55.6108 27.4191 57.6808 22.8491 57.9808 19.5691C57.9808 19.5691 56.3308 21.0591 55.9208 21.0091C55.5108 20.9591 56.1808 19.2691 56.3508 18.1791C56.5208 17.0891 57.8208 12.8491 56.6108 13.3591C55.4008 13.8691 51.6108 17.6491 50.1808 15.2291C49.1808 13.4391 51.9708 10.0791 51.9708 10.0791C51.9708 10.0791 43.2208 14.9391 41.6108 12.4391C40.1808 10.2191 42.6108 8.43911 42.6108 8.43911C35.7576 11.3156 29.2057 14.8628 23.0508 19.0291C13.1608 25.7191 7.20078 33.9391 5.27078 34.2591C3.34078 34.5791 20.8008 13.7491 39.6308 6.25911C49.7908 2.19911 56.6308 1.66911 59.3608 2.94911C60.9608 3.68911 60.7708 5.73911 60.7708 6.23911C60.7708 6.23911 59.3508 19.6891 61.7708 23.0591C61.7708 23.0591 63.7708 21.9291 65.5008 21.1891C65.5008 21.1891 64.7008 21.1891 65.1008 20.4591C65.3108 20.0591 65.9608 19.8491 66.8908 19.5591C68.1508 19.1591 70.3208 18.9891 71.4808 18.1491C72.6408 17.3091 72.4808 16.9691 73.0908 16.7691C74.2717 16.9823 75.4711 17.0762 76.6708 17.0491C77.6963 16.8698 78.7452 16.8698 79.7708 17.0491C81.31 17.7815 82.901 18.3998 84.5308 18.8991C86.0308 19.1791 86.2008 19.2891 86.7008 20.1691C87.0583 20.8178 87.2635 21.5394 87.3008 22.2791H87.2408C86.2212 21.9189 85.1407 21.7626 84.0608 21.8191C84.6308 21.8791 85.2008 22.1191 84.3608 22.3191C83.5208 22.5191 81.0408 23.3191 81.0408 23.3191C81.6449 22.6679 82.3861 22.159 83.2108 21.8291C83.2708 21.8291 80.2108 21.8291 80.2108 21.8291C80.8111 21.2624 81.2082 20.5139 81.3408 19.6991C81.6093 19.655 81.8736 19.5881 82.1308 19.4991C82.9508 19.2191 82.0408 18.9991 80.2708 18.9291C79.2082 18.8867 78.1493 18.7764 77.1008 18.5991L76.6508 19.3791C77.1602 19.1706 77.7134 19.0915 78.2608 19.1491C78.2615 19.447 78.3721 19.7341 78.5714 19.9556C78.7707 20.177 79.0446 20.3171 79.3408 20.3491C79.648 20.3878 79.9599 20.3393 80.2408 20.2091C80.0818 20.6913 79.7453 21.095 79.2996 21.3383C78.8539 21.5816 78.3324 21.6462 77.8408 21.5191C77.5207 21.4324 77.2213 21.2825 76.9602 21.0781C76.6992 20.8737 76.4817 20.619 76.3208 20.3291C76.3208 20.3291 75.2608 22.5091 74.2608 23.0391C73.2608 23.5691 68.0608 25.9491 65.9208 28.5791C63.7808 31.2091 62.9208 32.0991 61.2808 32.5791C59.6408 33.0591 59.4408 33.0691 59.2308 33.2991C59.0208 33.5291 57.2308 36.2991 51.6608 39.2991C49.8708 40.2991 49.1308 40.2291 48.8308 39.9291C48.3308 39.4291 48.9708 38.6291 48.6208 38.6491C47.7995 38.7748 47.0071 39.0457 46.2808 39.4491C44.4508 40.2291 43.2808 40.8891 41.9008 41.0091C40.5208 41.1291 39.3608 40.7191 39.2708 38.8191C39.2708 38.8191 39.2108 38.8191 38.2708 39.1091C37.3308 39.3991 32.1008 41.8491 30.2008 41.8691C29.2008 41.8691 31.0608 39.5091 31.0608 39.5091C31.0608 39.5091 26.0608 42.5091 25.0008 42.9791C23.9408 43.4491 20.8608 44.7491 22.0808 41.5691C16.4625 44.8489 10.4781 47.4568 4.25078 49.3391C0.800776 50.3991 -0.0292242 49.9391 0.000775786 50.7891C0.000775786 51.1891 0.390776 51.3391 0.910776 51.3691C2.01505 51.4406 3.12368 51.4038 4.22078 51.2591C7.54499 50.747 10.8271 49.9916 14.0408 48.9991C18.9708 47.4191 20.4408 45.7291 23.8608 46.6791C28.2108 47.8791 30.3708 46.0791 30.3708 46.0791C30.3708 46.0791 31.0308 47.2591 33.7108 47.2091C33.7108 47.2091 36.1608 49.0691 40.6308 48.3591C42.0096 48.977 43.5105 49.2745 45.0208 49.2291C45.2633 50.5042 45.3673 51.8017 45.3308 53.0991C45.1708 55.2691 45.3308 55.8791 46.5408 54.8091C47.0962 56.3394 47.557 57.9023 47.9208 59.4891C48.0008 60.4291 47.9808 61.0091 48.4808 61.0691C48.7596 61.1061 49.042 61.1061 49.3208 61.0691C49.4732 61.3692 49.6904 61.6317 49.9568 61.8375C50.2231 62.0433 50.5319 62.1874 50.8608 62.2591C50.8608 62.2591 50.9708 62.6191 49.0908 63.3591C48.1508 63.7291 47.2908 64.6091 47.6208 65.0391C47.6208 65.0391 48.4008 65.0391 49.2408 65.0391C49.5643 64.7433 49.9708 64.554 50.4054 64.4968C50.84 64.4395 51.2817 64.5172 51.6708 64.7191C51.9068 64.8255 52.0991 65.0096 52.2156 65.2408C52.3321 65.472 52.3657 65.7361 52.3108 65.9891C52.2655 66.1623 52.1874 66.3253 52.0808 66.4691C52.0208 66.5691 51.8808 66.7491 51.7208 67.0191C51.5608 67.2891 51.2408 67.9291 51.3308 68.1091C51.4208 68.2891 52.1508 69.3191 50.3308 69.5491C50.3308 69.5491 50.4208 69.9091 50.9808 69.8791C51.5408 69.8491 52.9808 68.9591 52.9808 68.5091C53.4397 67.9632 53.8108 67.3492 54.0808 66.6891C54.5008 65.6191 54.5508 65.4591 54.6908 65.6191C54.8817 65.9581 55.0015 66.3325 55.0428 66.7194C55.084 67.1062 55.0459 67.4975 54.9308 67.8691C54.6408 68.5791 54.3908 68.7191 54.6208 69.0291C54.7427 69.1362 54.8731 69.2332 55.0108 69.3191C55.1608 69.4291 55.1808 69.6991 54.7408 70.1291C53.9808 70.8991 56.0508 69.9891 56.3408 69.2691C56.3408 69.2691 57.0008 68.5091 56.7308 65.6391C56.7308 65.6391 56.7308 65.3291 57.0608 65.5591C57.3177 65.7002 57.5404 65.8961 57.7132 66.1329C57.886 66.3696 58.0047 66.6414 58.0608 66.9291C58.0608 67.4591 57.8308 67.9291 58.1908 68.1091C58.5508 68.2891 58.5708 68.8491 58.4308 69.1991C58.2908 69.5491 57.4908 69.6491 57.6808 69.7091C57.915 69.7354 58.1521 69.7131 58.3773 69.6434C58.6024 69.5737 58.8107 69.4583 58.9891 69.3043C59.1676 69.1503 59.3122 68.9611 59.414 68.7485C59.5158 68.536 59.5726 68.3047 59.5808 68.0691C59.7074 67.1081 59.5414 66.1312 59.1043 65.266C58.6673 64.4008 57.9795 63.6874 57.1308 63.2191C55.1308 62.0091 54.5108 61.4091 54.2008 54.1591C54.2354 51.6369 54.6259 49.1322 55.3608 46.7191C56.0208 44.3191 56.8208 42.9791 56.8608 43.2491C56.9408 43.7291 56.2908 45.5491 56.2408 46.4591C58.8522 45.1205 61.3742 43.614 63.7908 41.9491C64.7745 41.1502 65.6667 40.2447 66.4508 39.2491C66.5208 39.1591 67.9608 37.7491 68.5308 33.9591L70.7508 29.6091C70.7508 29.6091 71.6308 31.0691 72.3708 30.1891C73.1108 29.3091 74.6508 26.7891 74.8908 26.7591C74.8908 26.7591 75.2508 27.8991 75.7808 27.5691C76.3108 27.2391 76.5208 26.0191 77.8808 25.3691C79.096 24.8422 80.3416 24.3881 81.6108 24.0091C81.6108 24.0091 86.9808 22.6791 87.1708 23.0791C87.2988 23.5144 87.3661 23.9654 87.3708 24.4191C87.9221 23.384 88.1255 22.1988 87.9508 21.0391" fill="#E22333"/>
<path d="M23.8608 47.8091C22.4008 47.2591 20.2808 47.8091 18.1908 48.7291C16.1008 49.6491 6.05079 53.0491 0.310791 52.7291C0.310791 52.7291 1.16079 54.0291 4.67079 54.5891C4.67079 54.5891 4.38079 56.5891 7.84079 55.7991C11.3008 55.0091 23.7008 49.4791 26.3108 47.9991C25.4971 48.2251 24.6299 48.1578 23.8608 47.8091" fill="#E22333"/>
<path d="M32.7908 48.2691C31.6686 48.3365 30.5621 47.9796 29.6908 47.2691L17.3908 53.6291C17.3908 53.6291 11.7708 56.2491 12.8608 56.9191C12.8608 56.9191 14.6108 57.9191 18.5408 56.3891C22.4708 54.8591 33.5408 48.7191 33.5408 48.7191C33.5408 48.7191 32.8908 48.2691 32.8508 48.2691" fill="#E22333"/>
<path d="M38.0108 49.3991C37.0517 49.4624 36.0914 49.2944 35.2108 48.9091C35.2108 48.9091 28.5708 53.1291 27.3208 53.8091C26.0708 54.4891 24.0908 55.2891 26.3208 55.6391C28.5508 55.9891 30.8408 55.7591 34.5608 52.5491C35.7839 51.5636 36.9523 50.512 38.0608 49.3991" fill="#E22333"/>
<path d="M61.5008 62.2591C62.8008 62.2591 65.7208 64.1991 65.6708 64.4291C65.6208 64.6591 64.5808 64.1591 64.2808 64.0391C63.9808 63.9191 63.5408 63.8691 63.8808 64.3491C64.2617 64.9124 64.5299 65.544 64.6708 66.2091C64.6708 66.4391 64.4308 66.2091 64.4308 66.2091C64.0824 65.2413 63.3925 64.4341 62.4908 63.9391C61.9408 63.7291 61.7708 63.8591 61.7408 64.2391C61.7108 64.6191 61.9108 65.3691 61.4808 64.2991C61.0851 63.4482 60.4836 62.7093 59.7308 62.1491C59.4208 61.9491 59.5608 61.7291 59.5608 61.7291C59.6505 61.6596 59.754 61.6103 59.8645 61.5844C59.9749 61.5585 60.0896 61.5567 60.2008 61.5791C60.6826 61.6751 61.1309 61.8958 61.5008 62.2191V62.2591ZM59.1008 46.2191C57.7908 46.9191 56.1608 47.6391 56.1608 47.6391C55.7338 49.8114 55.5859 52.0294 55.7208 54.2391C55.9208 59.7691 56.5208 61.3091 58.3208 62.3491C59.1562 62.7743 59.8697 63.4048 60.3945 64.1815C60.9193 64.9581 61.238 65.8555 61.3208 66.7891C61.3208 67.4991 61.2308 67.6791 61.4608 67.9291C61.6908 68.1791 61.6708 68.3391 61.4008 68.8191C61.1308 69.2991 60.4008 69.4291 60.6708 69.4691C61.0057 69.5277 61.3505 69.4693 61.6474 69.3035C61.9442 69.1378 62.175 68.8749 62.3008 68.5591C62.7308 67.5591 63.2208 67.0491 62.4008 64.9591C62.4008 64.9591 63.4008 64.7991 63.7308 66.5991C63.9608 67.7491 63.6008 68.1691 64.5208 68.4991C64.5208 68.4991 64.6608 68.9091 64.1408 69.4991C63.6208 70.0891 64.3008 69.8291 64.6608 69.6491C65.0122 69.4302 65.2932 69.115 65.4705 68.7409C65.6478 68.3668 65.7138 67.9497 65.6608 67.5391C65.5274 66.571 65.1863 65.6431 64.6608 64.8191C65.0871 64.9538 65.4452 65.2475 65.6608 65.6391C66.0308 66.2991 65.9808 66.6391 66.9008 66.6391C67.0302 66.7597 67.1341 66.905 67.2062 67.0665C67.2784 67.228 67.3174 67.4023 67.3208 67.5791C67.3208 68.2191 66.5608 68.6691 66.8208 68.5791C67.0808 68.4891 68.8208 67.8791 67.5008 65.6991C67.413 65.3664 67.2588 65.0549 67.0474 64.7833C66.836 64.5118 66.5718 64.2859 66.2708 64.1191C65.2708 63.5891 64.0008 62.1191 61.6808 61.7091C61.1688 61.1843 60.7405 60.584 60.4108 59.9291C60.4881 59.7543 60.5516 59.5738 60.6008 59.3891C60.6508 59.1291 59.0908 51.1691 62.8708 44.0391C62.8708 44.0391 60.3308 45.5191 59.0208 46.2091" fill="#E22333"/>
<path d="M34.9508 67.6091L37.7408 68.7491C37.7056 69.2643 37.8041 69.7799 38.0266 70.2459C38.2491 70.7119 38.5881 71.1125 39.0108 71.4091C38.8203 71.9303 38.4704 72.3782 38.0108 72.6891C37.8408 72.8191 37.7008 72.8491 37.7408 72.8991C37.7808 72.9491 37.8908 72.8991 38.0008 72.8391C40.6608 71.8391 40.9208 69.3491 40.8008 67.6491C40.7367 66.6676 40.2874 65.7511 39.5508 65.0991C39.5508 65.0991 44.0308 65.7191 45.6608 65.3891C47.2908 65.0591 45.6608 64.9891 45.6608 64.9891C42.2708 64.9891 38.4908 63.6591 36.5708 64.2891C35.7815 64.5674 35.0974 65.0828 34.6123 65.7649C34.1272 66.4469 33.8647 67.2622 33.8608 68.0991C33.7329 68.8672 33.8151 69.6556 34.0985 70.3808C34.3819 71.1061 34.856 71.7412 35.4708 72.2191C35.5808 72.3091 35.7308 72.4391 35.7508 72.4191C35.7708 72.3991 35.6508 72.2091 35.6008 72.1291C35.1863 71.465 34.9183 70.72 34.8148 69.9439C34.7114 69.1679 34.7748 68.3787 35.0008 67.6291" fill="#E22333"/>
<path d="M81.6708 71.0991C79.8102 71.1933 77.9449 71.0759 76.1108 70.7491C76.1108 70.7491 75.7108 70.9891 75.7108 70.9891C77.2615 71.5531 78.9008 71.8343 80.5508 71.8191C81.0808 71.9091 80.4508 72.1291 80.4508 72.1291C77.6308 74.4391 72.9408 73.7491 66.0408 73.7491C59.1408 73.7491 51.9108 75.7491 49.5408 76.0991C48.5408 76.2591 47.7908 75.4291 47.1208 75.0991C46.6104 74.8335 46.0825 74.603 45.5408 74.4091C52.5847 72.8839 59.7422 71.9407 66.9408 71.5891C72.1708 71.2291 76.5908 71.9691 77.1408 68.0191C77.3171 66.9843 77.1186 65.9206 76.5808 65.0191C75.9238 63.9664 74.9608 63.1395 73.8208 62.6491C73.6075 62.5949 73.3841 62.5949 73.1708 62.6491C71.1987 63.2654 69.1677 63.6743 67.1108 63.8691C66.5608 63.9391 66.8608 64.0991 66.8608 64.0991C68.8902 64.2293 70.9259 63.9749 72.8608 63.3491C73.0333 63.2947 73.2183 63.2947 73.3908 63.3491C73.9818 63.5469 74.5175 63.8821 74.9539 64.3271C75.3902 64.7721 75.7147 65.3143 75.9008 65.9091C77.0308 69.0091 74.6108 69.7291 72.5408 69.8291C70.4708 69.9291 61.7408 70.8291 58.4308 71.0291C55.1208 71.2291 46.4308 72.4191 43.2208 72.8891C40.7908 73.2591 37.6808 73.4791 37.6808 73.4791C36.8408 73.4791 38.2208 73.8791 41.5308 74.3691C44.8408 74.8591 45.7208 76.1691 47.0808 77.0291C47.9872 77.3963 48.9804 77.4936 49.9408 77.3091C51.3108 77.1691 54.2208 76.3091 56.0808 76.0291C62.2019 75.0777 68.4029 74.7427 74.5908 75.0291C79.3608 75.1791 81.0408 73.8091 82.6508 71.8091C83.4108 70.8691 81.6508 71.1591 81.6508 71.1591" fill="#E22333"/>
</svg>
