<svg width="164" height="56" viewBox="0 0 164 56" fill="none" xmlns="http://www.w3.org/2000/svg">
<path d="M52.5955 14.1406V27.8203H61.8217L62.9469 25.1054H55.608V14.1406H52.5955Z" fill="white"/>
<path d="M72.9535 22.0965L71.1388 17.6576L69.324 22.0965H72.9535ZM69.7813 14.1551H72.5543L78.4196 27.8348H75.2764L74.0424 24.757H68.2351L66.9866 27.8203H63.916L69.7813 14.1551Z" fill="white"/>
<path d="M87.0322 16.9172H82.7349V14.1406H94.3348V16.9172H90.0411V27.8203H87.0322V16.9172Z" fill="white"/>
<path d="M102.817 20.7863C103.434 20.8296 104.044 20.642 104.53 20.26C104.728 20.0843 104.884 19.8667 104.987 19.6231C105.09 19.3795 105.137 19.116 105.126 18.8517V18.8154C105.144 18.541 105.096 18.2661 104.987 18.0136C104.878 17.7612 104.71 17.5383 104.498 17.3636C103.992 17.0083 103.38 16.8355 102.763 16.8736H99.772V20.7863H102.817ZM96.7595 14.1551H103.013C104.748 14.1551 106.073 14.6197 107.006 15.5452C107.398 15.9592 107.702 16.4482 107.9 16.9827C108.099 17.5172 108.187 18.0863 108.16 18.6557V18.6957C108.209 19.6661 107.927 20.6245 107.361 21.4142C106.818 22.1105 106.088 22.6379 105.256 22.935L108.599 27.8203H105.078L102.135 23.4467H99.7684V27.8203H96.7595V14.1551Z" fill="white"/>
<path d="M117.172 25.2832C117.742 25.2888 118.307 25.175 118.831 24.9493C119.328 24.7414 119.773 24.4281 120.137 24.0311C120.498 23.633 120.783 23.1715 120.976 22.67C121.18 22.1462 121.283 21.5881 121.277 21.0258V20.9823C121.281 20.4154 121.179 19.8527 120.976 19.3236C120.771 18.806 120.465 18.3345 120.075 17.937C119.686 17.5395 119.221 17.2239 118.707 17.0088C118.194 16.7937 117.643 16.6835 117.086 16.6846C116.529 16.6857 115.979 16.7981 115.466 17.0152C114.976 17.2282 114.536 17.5409 114.174 17.9335C113.814 18.3311 113.53 18.7911 113.336 19.2909C113.13 19.8183 113.027 20.38 113.031 20.946V20.9823C113.028 21.5505 113.131 22.1144 113.336 22.6446C113.527 23.1529 113.82 23.6172 114.196 24.0093C114.576 24.4181 115.037 24.7428 115.551 24.9622C116.064 25.1816 116.617 25.291 117.176 25.2832H117.172ZM117.136 28.0562C116.141 28.0652 115.154 27.8765 114.232 27.5009C113.379 27.1488 112.6 26.6376 111.938 25.9946C111.29 25.3627 110.778 24.6041 110.436 23.7661C110.072 22.8984 109.889 21.9664 109.895 21.0258V20.9823C109.887 20.0397 110.074 19.1056 110.443 18.2383C110.8 17.3888 111.321 16.6182 111.977 15.971C112.633 15.3238 113.41 14.8128 114.265 14.4673C115.191 14.0873 116.185 13.8973 117.186 13.9083C118.182 13.8975 119.17 14.0876 120.09 14.4673C120.943 14.8171 121.72 15.3272 122.38 15.9699C123.025 16.6042 123.537 17.3606 123.887 18.1948C124.247 19.067 124.429 20.0023 124.424 20.946V20.9823C124.43 21.9247 124.244 22.8586 123.876 23.7262C123.52 24.5681 123.005 25.3334 122.359 25.9801C121.698 26.6345 120.915 27.1514 120.054 27.5009C119.132 27.8759 118.145 28.0646 117.15 28.0562" fill="white"/>
<path d="M132.87 25.1816C133.415 25.208 133.956 25.0823 134.434 24.8187C134.622 24.7016 134.776 24.5361 134.879 24.3395C134.981 24.1429 135.03 23.9223 135.018 23.7008V23.6609C135.026 23.4502 134.983 23.2407 134.891 23.0508C134.799 22.861 134.662 22.6966 134.492 22.572C133.982 22.2619 133.388 22.1209 132.793 22.1691H129.313V25.178L132.87 25.1816ZM132.071 19.672C132.619 19.6989 133.165 19.5813 133.654 19.3308C133.842 19.2211 133.997 19.0613 134.1 18.8691C134.203 18.6768 134.251 18.4598 134.238 18.242V18.2021C134.249 17.9995 134.208 17.7975 134.119 17.6152C134.03 17.4329 133.896 17.2763 133.73 17.1604C133.295 16.8923 132.788 16.7655 132.278 16.7974H129.309V19.701L132.071 19.672ZM126.362 14.1551H132.703C134.278 14.1551 135.467 14.5592 136.27 15.3674C136.573 15.67 136.811 16.031 136.97 16.4284C137.13 16.8258 137.206 17.2514 137.196 17.6794V17.7193C137.201 18.0698 137.151 18.419 137.047 18.7537C136.957 19.0414 136.828 19.315 136.662 19.5668C136.506 19.8016 136.319 20.0151 136.107 20.2019C135.899 20.3898 135.67 20.553 135.425 20.6883C136.137 20.9354 136.778 21.3542 137.29 21.9078C137.774 22.5129 138.017 23.2757 137.973 24.0492V24.0891C137.987 24.6574 137.862 25.2205 137.61 25.7297C137.371 26.2023 137.016 26.6069 136.579 26.9056C136.085 27.2283 135.536 27.4583 134.96 27.5844C134.273 27.7475 133.568 27.8255 132.862 27.8167H126.362V14.1551Z" fill="white"/>
<path d="M139.918 14.1406H150.215V16.8192H142.887V19.5958H148.244V22.2744H142.887V25.149H150.313V27.8203H139.918V14.1406Z" fill="white"/>
<path d="M54.0146 37.9067V32.5931H52.4031V37.9612C52.4031 40.6144 53.8222 42.0771 56.3956 42.0771C58.9689 42.0771 60.4534 40.5926 60.4534 37.8922V32.5931H58.8491V37.9757C58.8491 39.6707 57.9671 40.6398 56.4282 40.6398C54.8893 40.6398 54.011 39.6416 54.011 37.9067" fill="white"/>
<path d="M64.1482 32.5931V41.921H65.7307V35.0721L70.9463 41.921H72.3727V32.5931H70.7939V39.2424L65.7307 32.5931H64.1482Z" fill="white"/>
<path d="M78.4231 32.5931H76.8152V41.921H78.4231V32.5931Z" fill="white"/>
<path d="M83.6168 32.5931H81.8347L85.6058 41.921H87.1447L90.9194 32.5931H89.1881L86.4043 40.0953L83.6168 32.5931Z" fill="white"/>
<path d="M95.5108 37.9067H100.178V36.5348H95.5108V33.9614H100.814V32.5931H93.9175V41.921H100.883V40.5527H95.5108V37.9067Z" fill="white"/>
<path d="M110.163 38.4003C110.75 38.2145 111.259 37.8387 111.609 37.3321C111.959 36.8256 112.131 36.2169 112.098 35.602C112.116 35.2203 112.058 34.8388 111.927 34.4798C111.797 34.1208 111.595 33.7916 111.336 33.5114C110.733 32.9125 109.804 32.5931 108.65 32.5931H104.41V41.921H106.022V38.7524H108.16L110.276 41.921H112.152L109.829 38.5274L110.163 38.4003ZM106.022 37.3841V33.9905H108.468C109.717 33.9905 110.461 34.622 110.461 35.6855C110.461 36.7489 109.695 37.3841 108.523 37.3841H106.022Z" fill="white"/>
<path d="M119.411 36.5529C117.825 36.1464 117.067 35.9105 117.067 34.9814C117.067 34.3825 117.546 33.8018 118.62 33.8018C119.521 33.8415 120.39 34.1443 121.121 34.6728L121.952 33.486C120.997 32.797 119.845 32.4342 118.667 32.4516C116.765 32.4516 115.488 33.5404 115.488 35.1519C115.488 36.8578 116.431 37.3841 118.547 37.9285C120.076 38.3205 120.758 38.6327 120.758 39.4602C120.758 40.0772 120.308 40.7087 119.048 40.7087C117.985 40.6879 116.96 40.3037 116.145 39.6199L115.216 40.7342C116.294 41.5998 117.637 42.0688 119.019 42.0626C121.085 42.0626 122.366 40.9991 122.366 39.2823C122.366 37.8305 121.574 37.1046 119.44 36.5566" fill="white"/>
<path d="M127.476 32.5931H125.868V41.921H127.476V32.5931Z" fill="white"/>
<path d="M134.075 41.921H135.683V34.0304H138.695V32.5931H131.062V34.0304H134.075V41.921Z" fill="white"/>
<path d="M148.4 32.5931L145.831 36.8324L143.312 32.5931H141.446L145.014 38.2225V41.921H146.625V38.1753L150.193 32.5931H148.4Z" fill="white"/>
<path d="M44.1278 21.2291C44.0413 21.3859 43.9164 21.5183 43.7649 21.6138C44.3347 21.6138 44.1278 21.2291 44.1278 21.2291Z" fill="white"/>
<path d="M33.7726 36.6799C33.8463 36.8262 33.9563 36.9512 34.092 37.0429C34.3589 37.1795 34.6107 37.3437 34.8434 37.5329C34.9159 37.6055 34.9922 37.718 34.9522 37.747C34.9123 37.7761 34.8107 37.747 34.5893 37.5401C34.3679 37.3333 34.2517 37.4567 34.2263 37.5837C34.2381 37.8158 34.2381 38.0484 34.2263 38.2806C34.19 38.5129 34.0739 38.5455 34.0848 38.2806C34.0957 38.0156 33.9505 37.424 33.6928 37.4458C33.6094 37.4621 33.5319 37.5002 33.4681 37.5563C33.4043 37.6125 33.3566 37.6845 33.3298 37.7652C33.2681 37.8922 33.1738 38.0156 33.2028 37.9104C33.2113 37.7177 33.1727 37.5258 33.0903 37.3514C32.9524 37.0538 32.9088 37.0211 32.7491 36.9885C32.5894 36.9558 32.5749 36.8288 32.8507 36.709C32.9831 36.6341 33.1311 36.5912 33.2829 36.5836C33.4348 36.5761 33.5863 36.6041 33.7255 36.6654L33.7726 36.6799ZM45.7029 21.7263C45.623 20.946 45.2056 20.8843 44.7955 20.7173C44.3854 20.5503 43.6486 20.3544 43.3764 20.1765C43.1018 20.0325 42.8026 19.9414 42.4944 19.9079C42.1677 19.8571 41.3438 19.9079 40.9664 19.8499C40.5889 19.7918 40.0082 19.6793 39.8775 19.7627C39.7732 19.9688 39.6243 20.149 39.4416 20.2903C39.2589 20.4316 39.047 20.5303 38.8213 20.5794C38.2515 20.7572 37.5292 20.9423 37.0065 21.0911C37.0065 20.8189 37.0356 20.0023 37.7325 18.8082C38.6035 17.3564 38.8467 16.8628 38.4584 16.4817C38.07 16.1006 36.3169 16.9753 36.3169 16.9753C36.3438 16.8362 36.362 16.6956 36.3714 16.5542C36.8759 16.2566 38.7886 15.1932 39.569 15.6287C40.4727 16.1332 39.3657 17.5342 39.2641 17.6649C39.1625 17.7955 37.9321 19.6357 37.6853 20.3834L38.2007 20.2418C38.2007 20.2418 39.344 18.4053 39.7396 17.9189C40.1352 17.4326 41.0498 16.0352 40.3167 15.4182C39.5835 14.8012 38.4003 15.0553 36.3859 16.3401C36.4077 15.6723 36.277 14.6705 35.3551 14.3221C33.8452 13.745 28.7095 14.1551 22.8659 18.8118C21.2805 19.9708 19.7956 21.2615 18.427 22.67C16.3618 24.8114 14.4345 27.0254 15.0516 27.3666C15.7267 27.7295 17.4761 25.7696 17.683 25.5518C17.683 25.5518 19.5195 25.6643 21.817 23.6971C22.7367 24.1969 23.8159 24.3155 24.8222 24.0274C24.8222 24.0274 24.1326 25.7406 26.1761 25.599C26.1761 25.599 26.0018 26.4338 26.6951 26.2923C26.6951 26.2923 22.6554 28.6587 22.7244 28.7531C22.7933 28.8474 24.7932 27.9655 25.7732 27.4682C26.3612 27.1706 26.7132 26.8839 27.1851 26.8076C28.7663 26.6356 30.2955 26.1415 31.6784 25.3558C34.0267 24.071 34.778 22.4123 34.8869 21.2218C34.8869 21.2218 34.288 21.7626 34.1392 21.7445C33.9904 21.7263 34.2336 21.1129 34.2953 20.7173C34.357 20.3217 34.8288 18.7828 34.3897 18.9679C33.9505 19.153 32.5749 20.5249 32.0559 19.6466C31.6929 18.9969 32.7056 17.7774 32.7056 17.7774C32.7056 17.7774 29.5297 19.5413 28.9454 18.634C28.4264 17.8282 29.3083 17.1822 29.3083 17.1822C26.8209 18.2262 24.4429 19.5137 22.209 21.0258C18.6194 23.454 16.4562 26.4374 15.7557 26.5536C15.0552 26.6697 21.3923 19.1094 28.2267 16.3909C31.9143 14.9173 34.3969 14.725 35.3878 15.1895C35.9685 15.4581 35.8995 16.2022 35.8995 16.3837C35.8995 16.3837 35.3842 21.2654 36.2625 22.4885C36.2625 22.4885 36.9884 22.0784 37.6163 21.8098C37.6163 21.8098 37.3259 21.8098 37.4711 21.5448C37.5473 21.3997 37.7833 21.3234 38.1208 21.2182C38.5781 21.073 39.3657 21.0113 39.7868 20.7064C40.2078 20.4015 40.1497 20.2781 40.3711 20.2055C40.7997 20.2829 41.235 20.317 41.6705 20.3072C42.0427 20.2421 42.4234 20.2421 42.7956 20.3072C43.3543 20.573 43.9317 20.7974 44.5233 20.9786C45.0677 21.0803 45.1294 21.1202 45.3109 21.4396C45.4407 21.675 45.5151 21.9369 45.5287 22.2054H45.5069C45.1368 22.0747 44.7447 22.0179 44.3527 22.0385C44.5596 22.0602 44.7665 22.1473 44.4616 22.2199C44.1567 22.2925 43.2566 22.5829 43.2566 22.5829C43.4759 22.3465 43.7449 22.1618 44.0442 22.0421C44.066 22.0421 42.9553 22.0421 42.9553 22.0421C43.1732 21.8364 43.3173 21.5647 43.3655 21.269C43.4629 21.253 43.5589 21.2287 43.6522 21.1964C43.9498 21.0948 43.6195 21.0149 42.9771 20.9895C42.5914 20.9741 42.2071 20.9341 41.8266 20.8697L41.6632 21.1528C41.8481 21.0772 42.0489 21.0485 42.2476 21.0694C42.2478 21.1775 42.288 21.2817 42.3603 21.3621C42.4326 21.4424 42.5321 21.4933 42.6396 21.5049C42.7511 21.519 42.8643 21.5014 42.9662 21.4541C42.9085 21.6291 42.7864 21.7756 42.6246 21.8639C42.4629 21.9522 42.2736 21.9757 42.0951 21.9296C41.979 21.8981 41.8703 21.8437 41.7755 21.7695C41.6808 21.6953 41.6019 21.6029 41.5435 21.4977C41.5435 21.4977 41.1587 22.2889 40.7958 22.4813C40.4328 22.6736 38.5455 23.5374 37.7687 24.492C36.992 25.4466 36.6799 25.7696 36.0846 25.9438C35.4894 26.118 35.4168 26.1217 35.3406 26.2051C35.2644 26.2886 34.6147 27.294 32.593 28.3829C31.9434 28.7458 31.6748 28.7204 31.5659 28.6115C31.3844 28.43 31.6167 28.1397 31.4897 28.1469C31.1916 28.1926 30.904 28.2909 30.6404 28.4373C29.9762 28.7204 29.5515 28.96 29.0506 29.0035C28.5498 29.0471 28.1287 28.8983 28.0961 28.2086C28.0961 28.2086 28.0743 28.2086 27.7331 28.3139C27.3919 28.4192 25.4937 29.3084 24.8041 29.3156C24.4411 29.3156 25.1162 28.4591 25.1162 28.4591C25.1162 28.4591 23.3015 29.5479 22.9167 29.7185C22.532 29.8891 21.4141 30.361 21.8569 29.2068C19.8178 30.3972 17.6457 31.3437 15.3855 32.0269C14.1333 32.4116 13.832 32.2447 13.8429 32.5532C13.8429 32.6984 13.9845 32.7528 14.1732 32.7637C14.574 32.7897 14.9764 32.7763 15.3746 32.7238C16.5811 32.5379 17.7724 32.2637 18.9388 31.9035C20.7281 31.33 21.2617 30.7166 22.503 31.0614C24.0818 31.497 24.8658 30.8437 24.8658 30.8437C24.8658 30.8437 25.1053 31.272 26.0781 31.2538C26.0781 31.2538 26.9673 31.9289 28.5897 31.6712C29.0901 31.8955 29.6349 32.0034 30.183 31.987C30.2711 32.4498 30.3088 32.9207 30.2956 33.3916C30.2375 34.1792 30.2956 34.4006 30.7347 34.0123C30.9363 34.5677 31.1036 35.1349 31.2356 35.7109C31.2646 36.052 31.2574 36.2626 31.4389 36.2843C31.54 36.2978 31.6426 36.2978 31.7437 36.2843C31.7991 36.3933 31.8779 36.4885 31.9746 36.5632C32.0712 36.6379 32.1833 36.6902 32.3027 36.7162C32.3027 36.7162 32.3426 36.8469 31.6603 37.1155C31.3191 37.2498 31.0069 37.5692 31.1267 37.7253C31.1267 37.7253 31.4098 37.7253 31.7147 37.7253C31.8321 37.6179 31.9797 37.5492 32.1374 37.5284C32.2952 37.5076 32.4555 37.5358 32.5967 37.6091C32.6823 37.6477 32.7521 37.7146 32.7944 37.7985C32.8367 37.8824 32.8489 37.9782 32.829 38.0701C32.8125 38.1329 32.7842 38.1921 32.7455 38.2443C32.7237 38.2806 32.6729 38.3459 32.6148 38.4439C32.5568 38.5419 32.4406 38.7742 32.4733 38.8395C32.5059 38.9048 32.7709 39.2787 32.1103 39.3622C32.1103 39.3622 32.143 39.4928 32.3462 39.4819C32.5495 39.4711 33.0721 39.148 33.0721 38.9847C33.2387 38.7866 33.3734 38.5637 33.4714 38.3241C33.6238 37.9358 33.642 37.8777 33.6928 37.9358C33.7621 38.0588 33.8056 38.1947 33.8205 38.3351C33.8355 38.4755 33.8217 38.6175 33.7799 38.7524C33.6746 39.0101 33.5839 39.0609 33.6674 39.1734C33.7116 39.2123 33.759 39.2475 33.8089 39.2787C33.8634 39.3186 33.8706 39.4166 33.7109 39.5727C33.4351 39.8522 34.1864 39.5219 34.2917 39.2605C34.2917 39.2605 34.5312 38.9847 34.4332 37.943C34.4332 37.943 34.4332 37.8305 34.553 37.914C34.6462 37.9652 34.7271 38.0363 34.7898 38.1222C34.8525 38.2082 34.8956 38.3068 34.9159 38.4112C34.9159 38.6036 34.8325 38.7742 34.9631 38.8395C35.0938 38.9048 35.101 39.1081 35.0502 39.2351C34.9994 39.3622 34.7091 39.3985 34.778 39.4202C34.863 39.4298 34.9491 39.4217 35.0308 39.3964C35.1125 39.3711 35.1881 39.3292 35.2529 39.2733C35.3176 39.2174 35.3702 39.1487 35.4071 39.0716C35.4441 38.9944 35.4647 38.9105 35.4676 38.825C35.5136 38.4762 35.4533 38.1216 35.2947 37.8076C35.1361 37.4936 34.8864 37.2347 34.5784 37.0647C33.8525 36.6255 33.6275 36.4077 33.5149 33.7763C33.5275 32.8609 33.6692 31.9518 33.936 31.076C34.1755 30.2049 34.4659 29.7185 34.4804 29.8165C34.5094 29.9907 34.2735 30.6513 34.2554 30.9816C35.2032 30.4957 36.1186 29.9489 36.9957 29.3447C37.3527 29.0547 37.6765 28.7261 37.9611 28.3647C37.9865 28.332 38.5092 27.8203 38.7161 26.4447L39.5218 24.8659C39.5218 24.8659 39.8412 25.3958 40.1098 25.0764C40.3784 24.757 40.9373 23.8423 41.0244 23.8314C41.0244 23.8314 41.1551 24.2452 41.3475 24.1254C41.5398 24.0057 41.616 23.5629 42.1097 23.3269C42.5507 23.1357 43.0028 22.9709 43.4635 22.8333C43.4635 22.8333 45.4125 22.3506 45.4815 22.4958C45.5279 22.6538 45.5524 22.8174 45.5541 22.9821C45.7542 22.6064 45.828 22.1763 45.7646 21.7554" fill="white"/>
<path d="M22.5031 31.4716C21.9732 31.272 21.2037 31.4716 20.4452 31.8055C19.6866 32.1394 16.0389 33.3735 13.9556 33.2573C13.9556 33.2573 14.2641 33.7291 15.538 33.9324C15.538 33.9324 15.4328 34.6583 16.6886 34.3716C17.9444 34.0848 22.445 32.0777 23.3923 31.5406C23.097 31.6226 22.7822 31.5982 22.5031 31.4716" fill="white"/>
<path d="M25.7441 31.6386C25.3368 31.663 24.9352 31.5335 24.619 31.2756L20.1547 33.584C20.1547 33.584 18.1149 34.5349 18.5105 34.7781C18.5105 34.7781 19.1457 35.141 20.5721 34.5857C21.9985 34.0304 26.0164 31.8019 26.0164 31.8019C26.0164 31.8019 25.7804 31.6386 25.7659 31.6386" fill="white"/>
<path d="M27.6389 32.0487C27.2908 32.0717 26.9422 32.0107 26.6226 31.8708C26.6226 31.8708 24.2126 33.4025 23.7589 33.6493C23.3052 33.8961 22.5866 34.1865 23.3959 34.3135C24.2053 34.4405 25.0365 34.3571 26.3867 33.192C26.8306 32.8343 27.2547 32.4526 27.657 32.0487" fill="white"/>
<path d="M36.1645 36.7163C36.6363 36.7163 37.6961 37.4204 37.678 37.5039C37.6598 37.5873 37.2824 37.4059 37.1735 37.3623C37.0646 37.3188 36.9049 37.3006 37.0283 37.4748C37.1665 37.6793 37.2639 37.9085 37.315 38.1499C37.315 38.2334 37.2279 38.1499 37.2279 38.1499C37.1015 37.7987 36.8511 37.5057 36.5238 37.326C36.3242 37.2498 36.2625 37.297 36.2516 37.4349C36.2407 37.5728 36.3133 37.845 36.1572 37.4567C36.0136 37.1479 35.7953 36.8797 35.5221 36.6763C35.4095 36.6037 35.4603 36.5239 35.4603 36.5239C35.4929 36.4987 35.5305 36.4808 35.5706 36.4714C35.6106 36.462 35.6523 36.4613 35.6926 36.4695C35.8675 36.5043 36.0302 36.5844 36.1645 36.7017V36.7163ZM35.2934 30.8945C34.8179 31.1486 34.2263 31.4099 34.2263 31.4099C34.0713 32.1983 34.0176 33.0033 34.0666 33.8054C34.1392 35.8125 34.357 36.3715 35.0103 36.7489C35.3135 36.9032 35.5725 37.1321 35.7629 37.414C35.9534 37.6959 36.0691 38.0216 36.0991 38.3604C36.0991 38.6181 36.0665 38.6835 36.15 38.7742C36.2334 38.8649 36.2262 38.923 36.1282 39.0972C36.0302 39.2714 35.7652 39.3186 35.8632 39.3331C35.9848 39.3544 36.1099 39.3332 36.2177 39.273C36.3254 39.2129 36.4092 39.1175 36.4548 39.0029C36.6109 38.6399 36.7888 38.4548 36.4911 37.6962C36.4911 37.6962 36.8541 37.6382 36.9739 38.2915C37.0573 38.7089 36.9267 38.8613 37.2606 38.9811C37.2606 38.9811 37.3114 39.1299 37.1227 39.344C36.9339 39.5582 37.1807 39.4638 37.3114 39.3985C37.4389 39.319 37.5409 39.2046 37.6053 39.0688C37.6696 38.9331 37.6936 38.7817 37.6744 38.6326C37.6259 38.2813 37.5021 37.9445 37.3114 37.6454C37.4661 37.6943 37.5961 37.8009 37.6744 37.943C37.8087 38.1826 37.7905 38.306 38.1244 38.306C38.1714 38.3497 38.2091 38.4025 38.2353 38.4611C38.2615 38.5197 38.2756 38.583 38.2769 38.6472C38.2769 38.8795 38.001 39.0428 38.0954 39.0101C38.1898 38.9775 38.8213 38.7561 38.3422 37.9648C38.3103 37.8441 38.2543 37.731 38.1776 37.6324C38.1009 37.5339 38.005 37.4519 37.8958 37.3914C37.5328 37.199 37.0719 36.6654 36.2298 36.5166C36.044 36.3262 35.8885 36.1083 35.7689 35.8706C35.7969 35.8071 35.82 35.7416 35.8378 35.6746C35.856 35.5802 35.2898 32.6911 36.6617 30.1033C36.6617 30.1033 35.7398 30.6404 35.2644 30.8909" fill="white"/>
<path d="M26.5281 38.658L27.5407 39.0718C27.528 39.2588 27.5637 39.4459 27.6445 39.615C27.7252 39.7842 27.8483 39.9296 28.0017 40.0372C27.9325 40.2264 27.8055 40.389 27.6387 40.5018C27.577 40.549 27.5262 40.5599 27.5407 40.5781C27.5553 40.5962 27.5952 40.578 27.6351 40.5563C28.6006 40.1933 28.6949 39.2896 28.6514 38.6725C28.6281 38.3163 28.465 37.9836 28.1977 37.747C28.1977 37.747 29.8237 37.972 30.4153 37.8523C31.0069 37.7325 30.4153 37.7071 30.4153 37.7071C29.1849 37.7071 27.813 37.2244 27.1161 37.453C26.8296 37.554 26.5813 37.7411 26.4053 37.9887C26.2292 38.2362 26.1339 38.5321 26.1325 38.8359C26.0861 39.1147 26.1159 39.4008 26.2188 39.664C26.3216 39.9273 26.4937 40.1578 26.7168 40.3312C26.7568 40.3639 26.8112 40.4111 26.8185 40.4038C26.8257 40.3966 26.7822 40.3276 26.764 40.2986C26.6136 40.0575 26.5163 39.7871 26.4788 39.5055C26.4412 39.2238 26.4642 38.9373 26.5463 38.6653" fill="white"/>
<path d="M43.4853 39.9247C42.81 39.9589 42.133 39.9163 41.4673 39.7977C41.4673 39.7977 41.3221 39.8848 41.3221 39.8848C41.8849 40.0895 42.4799 40.1916 43.0788 40.1861C43.2711 40.2187 43.0425 40.2986 43.0425 40.2986C42.019 41.137 40.3167 40.8866 37.8123 40.8866C35.308 40.8866 32.6838 41.6125 31.8236 41.7395C31.4607 41.7976 31.1885 41.4963 30.9453 41.3765C30.76 41.2802 30.5684 41.1965 30.3718 41.1261C32.9284 40.5725 35.5262 40.2302 38.139 40.1026C40.0372 39.9719 41.6415 40.2405 41.8411 38.8068C41.9051 38.4313 41.833 38.0452 41.6379 37.718C41.3994 37.3359 41.0499 37.0358 40.6361 36.8578C40.5587 36.8381 40.4776 36.8381 40.4002 36.8578C39.6844 37.0815 38.9473 37.2299 38.2007 37.3006C38.0011 37.326 38.11 37.3841 38.11 37.3841C38.8465 37.4313 39.5854 37.339 40.2877 37.1119C40.3503 37.0921 40.4174 37.0921 40.48 37.1119C40.6946 37.1836 40.889 37.3053 41.0473 37.4668C41.2057 37.6283 41.3235 37.8251 41.391 38.041C41.8012 39.1662 40.9228 39.4275 40.1715 39.4638C39.4202 39.5001 36.2516 39.8267 35.0503 39.8993C33.8489 39.9719 30.6948 40.4038 29.5298 40.5744C28.6478 40.7087 27.519 40.7886 27.519 40.7886C27.2141 40.7886 27.715 40.9337 28.9164 41.1116C30.1177 41.2894 30.4371 41.7649 30.9308 42.077C31.2597 42.2103 31.6202 42.2456 31.9688 42.1787C32.466 42.1279 33.5222 41.8157 34.1973 41.7141C36.419 41.3688 38.6697 41.2472 40.9156 41.3511C42.6469 41.4056 43.2566 40.9083 43.841 40.1824C44.1168 39.8413 43.478 39.9465 43.478 39.9465" fill="white"/>
</svg>
