<?xml version="1.0" encoding="utf-8"?>
<!-- Generator: Adobe Illustrator 25.3.0, SVG Export Plug-In . SVG Version: 6.00 Build 0)  -->
<svg version="1.1" id="Layer_1" xmlns="http://www.w3.org/2000/svg" xmlns:xlink="http://www.w3.org/1999/xlink" x="0px" y="0px"
	 viewBox="0 0 64 64" enable-background="new 0 0 64 64" xml:space="preserve">
<g>
	<rect fill="none" width="64" height="64"/>
	<g>
		<path fill="#FFFFFF" d="M19.9485,43.2676c0.5373,1.3119,1.2927,2.4591,2.4805,3.2785c0.3012,0.2078,0.6215,0.3807,0.9685,0.501
			c0.0383,0.0133,0.097,0.0136,0.0984,0.0608c0.0014,0.0448-0.0517,0.0571-0.0927,0.0686
			c-1.0187,0.2835-2.0494,0.4268-3.1097,0.3045c-0.8235-0.0949-1.5872-0.3423-2.2705-0.8186
			c-0.5925-0.413-1.0405-0.9533-1.3888-1.5811c-0.0227-0.041-0.0449-0.0823-0.0674-0.1234
			c-0.2608-0.5074-0.4444-1.043-0.5744-1.5968c-0.1225-0.5224-0.2014-1.0512-0.2453-1.5871
			c-0.0464-0.5676-0.0498-1.1354-0.0405-1.7032c0.0099-0.6035,0.0569-1.2051,0.1232-1.8058
			c0.0697-0.6313,0.1602-1.2593,0.2685-1.8844c0.1038-0.5989,0.218-1.1964,0.3592-1.7885c0.0639-0.2679,0.1186-0.5383,0.1843-0.806
			c0.1076-0.4386,0.2109-0.8782,0.332-1.3134c0.1268-0.4558,0.2482-0.9132,0.3861-1.3658c0.0698-0.2287,0.1439-0.4561,0.2074-0.6867
			c0.2017-0.7993,0.5686-1.5324,0.9212-2.2698c0.8907-1.863,1.8801-3.673,2.9652-5.43c1.1996-1.9426,2.5072-3.8084,3.9756-5.5593
			c1.1802-1.4072,2.4429-2.7326,3.8543-3.9117c0.1981-0.1601,0.3982-0.3176,0.5952-0.479c0.028-0.0229,0.0549-0.0554,0.0941-0.0228
			c0.0233,0.0193,0.0252,0.0436-0.0033,0.0633c-0.0818,0.084-0.1637,0.168-0.2455,0.2521
			c-0.2507,0.2697-0.5113,0.5302-0.7498,0.8112c-0.6217,0.7081-1.2397,1.4194-1.819,2.163
			c-0.9191,1.1795-1.7815,2.3988-2.5754,3.667c-0.7528,1.2024-1.4449,2.4377-2.0642,3.7134
			c-0.2387,0.4918-0.458,0.9929-0.6862,1.4897c-0.1601,0.3932-0.3251,0.7845-0.4812,1.1794
			c-0.2199,0.5558-0.4186,1.1191-0.6099,1.6854c-0.1294,0.3829-0.2548,0.7676-0.3643,1.1559
			c-0.1631,0.5784-0.326,1.1572-0.4605,1.7438c-0.0789,0.344-0.1412,0.6916-0.2261,1.0344
			c-0.0444,0.1796-0.0747,0.3646-0.1033,0.5487c-0.0832,0.471-0.1658,0.9417-0.2322,1.4153
			c-0.0296,0.2111-0.0622,0.4219-0.0891,0.6331c-0.0513,0.4022-0.0863,0.8065-0.1303,1.2096
			c-0.1156,1.0602-0.1049,2.124-0.0849,3.1866c0.0106,0.5603,0.0775,1.1203,0.1554,1.6773
			c0.0685,0.4898,0.1623,0.9747,0.2813,1.4535c0.109,0.4383,0.2349,0.8733,0.4094,1.2917
			C19.9142,43.1698,19.9262,43.2205,19.9485,43.2676z"/>
		<path fill="#FFFFFF" d="M43.1998,15.633c-0.4739-0.8617-1.0852-1.6075-1.8583-2.219c-0.2477-0.196-0.5083-0.3718-0.7793-0.5331
			c-0.5658-0.3447-1.1709-0.5948-1.8135-0.7548l-0.0004-0.0001c-0.322-0.0866-0.652-0.124-0.9824-0.1583
			c-0.4473-0.0464-0.8948-0.0306-1.3399,0.0179c-0.4021,0.0439-0.7996,0.116-1.1936,0.2154
			c-0.5208,0.1314-1.0209,0.3169-1.5183,0.5145c-0.0771,0.0306-0.148,0.0753-0.2282,0.0984
			c-2.7977,1.304-5.0509,3.2999-7.0841,5.5751c-0.035,0.0453-0.0674,0.093-0.1119,0.1298c-0.023,0.0191-0.0481,0.0503-0.0788,0.0193
			c-0.025-0.0254-0.0175-0.0574,0.008-0.0828l0.0001-0.0002c0.0597-0.1062,0.1315-0.2053,0.1838-0.3156
			c0.4469-0.7019,0.909-1.3935,1.4114-2.0571c0.7872-1.0398,1.6422-2.02,2.5893-2.9178c1.0938-1.037,2.2816-1.9462,3.6259-2.6379
			c1.7448-0.8977,3.5866-1.3409,5.5574-1.16c1.1644,0.1069,2.2787,0.4113,3.3303,0.9145c0.6993,0.3347,1.2324,0.8822,1.6828,1.5083
			c0.1553,0.2159,0.2926,0.4434,0.4165,0.679c0.3283,0.62,0.5475,1.2786,0.7091,1.9597c0.1746,0.7365,0.2439,1.4847,0.2968,2.2373
			c0.0513,0.7299,0.0083,1.4557-0.0298,2.1838c-0.0348,0.6655-0.1088,1.3264-0.2001,1.9848
			c-0.0606,0.4368-0.1391,0.8724-0.2187,1.3069c-0.0842,0.4601-0.1794,0.9187-0.2876,1.3729
			c-0.1913,0.8032-0.4037,1.6014-0.6462,2.3916c-0.1522,0.4957-0.3125,0.9887-0.4813,1.4784
			c-0.1198,0.3476-0.2478,0.6943-0.3963,1.0321c-0.3265,0.788-0.6541,1.5755-1.1358,2.2835
			c-0.0159-0.0072-0.032-0.0145-0.0479-0.0218c0.1433-0.4201,0.2866-0.8402,0.4299-1.2605c0.1287-0.4326,0.261-0.8643,0.3795-1.2997
			c0.1035-0.3806,0.1934-0.7652,0.2853-1.149c0.1234-0.5158,0.2323-1.0343,0.3281-1.5555c0.0676-0.3678,0.1206-0.7382,0.176-1.1083
			c0.0762-0.5097,0.1269-1.0213,0.169-1.5337c0.0259-0.3159,0.0572-0.6325,0.0581-0.9501c0.0013-0.5102,0.0226-1.021-0.017-1.5303
			c-0.0354-0.4554-0.0706-0.9105-0.1428-1.3632c-0.0581-0.3639-0.1193-0.7266-0.2077-1.0837
			c-0.1037-0.4188-0.2283-0.8319-0.3888-1.2334C43.5154,16.2767,43.3706,15.949,43.1998,15.633z"/>
		<path fill="#FFFFFF" d="M24.2113,47.5277c1.3815-0.4828,2.6651-1.1629,3.8806-1.969c2.2169-1.4704,4.2736-3.139,6.1354-5.0424
			c0.3753-0.3836,0.7386-0.7789,1.0774-1.1958c0.0963-0.1322,0.2058-0.2533,0.3125-0.3768
			c0.6076-0.7581,1.1554-1.5555,1.5883-2.4277c0.1479-0.2977,0.2729-0.6056,0.376-0.9417c0.0648,0.0643,0.0491,0.1281,0.0491,0.1837
			c0.0004,1.4249-0.0026,2.8499,0.0005,4.2747c0.0004,0.1663-0.098,0.2827-0.1679,0.4122c-0.6314,1.1681-1.4495,2.1961-2.376,3.1415
			c-1.3937,1.422-2.9753,2.6029-4.671,3.6373c-0.9522,0.5808-1.9218,1.1305-2.9411,1.5852
			c-1.3627,0.6079-2.7828,0.9809-4.2863,0.9622c-1.153-0.0144-2.2524-0.2661-3.2927-0.7744
			c-0.4557-0.2227-0.8845-0.485-1.294-0.7817c-0.4508-0.3273-0.8459-0.7153-1.2224-1.1234l-0.0019-0.0017
			c-0.0289-0.0235-0.0643-0.0507-0.0273-0.0877c0.0293-0.0292,0.0554,0.0047,0.0786,0.0236
			c0.2349,0.1916,0.4867,0.3564,0.7587,0.4914c0.5779,0.287,1.185,0.4648,1.8265,0.5496c0.5935,0.0784,1.1845,0.0759,1.7761,0.0218
			c0.6007-0.0549,1.19-0.1841,1.7688-0.351C23.778,47.6748,23.9982,47.6104,24.2113,47.5277z"/>
		<path fill="#FFFFFF" d="M41.7275,51.807c2.6366,0,5.2733,0,7.9099,0c0.2333,0,0.233,0.0003,0.2329,0.2332
			c-0.0001,0.5848-0.0054,1.1695,0.0037,1.754c0.0024,0.1574-0.0396,0.2038-0.2005,0.2028
			c-3.3883-0.02-6.7767-0.0343-10.1652-0.0499c-1.8221-0.0084-3.6441-0.0206-5.4663-0.0235
			c-0.4956-0.0008-0.9769,0.0813-1.4013,0.3667c-0.1353,0.091-0.2515,0.2019-0.3478,0.3338
			c-0.0181,0.0249-0.0371,0.057-0.0729,0.0476c-0.0405-0.0107-0.0289-0.0503-0.0289-0.0792
			c0.0002-0.6369,0.0014-1.2737,0.002-1.9107c0.0001-0.0843,0.0425-0.1457,0.0966-0.2063c0.4243-0.4755,0.9698-0.6744,1.5905-0.6755
			c2.6157-0.0043,5.2313-0.0019,7.847-0.0019C41.7275,51.8012,41.7275,51.8041,41.7275,51.807z"/>
		<path fill="#FFFFFF" d="M22.2683,51.8073c2.4384,0.0002,4.8766-0.0005,7.3149,0.0009c0.3383,0.0002,0.6765-0.0327,1.0143,0.0384
			c0.4608,0.097,0.8448,0.3141,1.1506,0.6721c0.0449,0.0525,0.0547,0.1095,0.0547,0.1736c-0.0001,0.616,0.0008,1.2321-0.0005,1.8481
			c-0.0001,0.0433,0.0222,0.1053-0.0349,0.1236c-0.0496,0.0158-0.0622-0.0442-0.0859-0.0753
			c-0.2141-0.2822-0.5096-0.4394-0.8391-0.54c-0.3167-0.0966-0.6427-0.1296-0.9735-0.128
			c-4.981,0.0243-9.9619,0.0478-14.9427,0.0714c-0.2036,0.0009-0.4077-0.0062-0.6107,0.0043
			c-0.1398,0.0072-0.1917-0.0309-0.1898-0.1818c0.0078-0.6002,0.0022-1.2007,0.0015-1.8011
			c-0.0002-0.2009,0.0054-0.2065,0.2151-0.2065C16.9844,51.8071,19.6264,51.8071,22.2683,51.8073z"/>
		<path fill="#FFFFFF" d="M22.5454,50.5907c2.6007,0,5.2012-0.0002,7.8018,0.0002c0.5044,0.0001,1.0131,0.029,1.4625,0.2696
			c0.261,0.1397,0.4405,0.1482,0.7032-0.0047c0.4279-0.2489,0.9252-0.2668,1.4139-0.2667c3.1698,0.0008,6.3396,0.0022,9.5094,0.0023
			c2.0836,0,4.1672-0.0005,6.2509-0.0061c0.1462-0.0004,0.1978,0.0428,0.185,0.1867c-0.0102,0.1139-0.0099,0.2302,0.0001,0.3443
			c0.0121,0.1379-0.0383,0.1792-0.1768,0.1787c-1.201-0.0041-2.4022-0.0004-3.6032-0.0006
			c-3.9897-0.0007-7.9794-0.002-11.9691-0.003c-0.4288-0.0001-0.8573,0.0016-1.2637,0.1694
			c-0.1332,0.0549-0.2474,0.1324-0.3211,0.261c-0.015,0.0262-0.0365,0.0643-0.0596,0.0679
			c-0.2059,0.0326-0.4138,0.0456-0.6223,0.0377c-0.0188-0.0007-0.048-0.0301-0.0528-0.0507
			c-0.0461-0.1988-0.2122-0.2617-0.3725-0.3202c-0.3475-0.1267-0.7112-0.1614-1.0785-0.1613
			c-5.2691,0.0009-10.5382,0.0022-15.8073,0.0035c-0.418,0.0001-0.4186,0-0.4169-0.4197c0.0012-0.2961-0.0428-0.2857,0.2864-0.2855
			c2.7102,0.0012,5.4205,0.0007,8.1308,0.0007C22.5454,50.5932,22.5454,50.5919,22.5454,50.5907z"/>
		<path fill="#FFFFFF" d="M45.202,36.5789c0.0001-1.2113,0.0002-2.4225,0.0001-3.6339c0-0.2298-0.0004-0.2301-0.237-0.2302
			c-0.6735-0.0005-1.3472-0.0038-2.0207,0.0016c-0.1396,0.0012-0.1805-0.047-0.178-0.1824c0.0072-0.4071,0.007-0.8145,0.0006-1.2216
			c-0.002-0.1294,0.0406-0.174,0.1707-0.1738c2.0521,0.0028,4.1041,0.0029,6.1561,0.0001c0.1314-0.0002,0.1848,0.0334,0.1815,0.1765
			c-0.0091,0.4071-0.0079,0.8145,0,1.2216c0.0027,0.1391-0.0456,0.1811-0.1809,0.1802c-0.6527-0.0048-1.3054-0.0015-1.9581-0.0015
			c-0.2842,0-0.2842-0.0004-0.2842,0.2792c0,2.4069,0.0001,4.8139,0.0001,7.2208c0,0.2309-0.0005,0.2305-0.2321,0.2302
			c-0.4177-0.0005-0.8355-0.0049-1.2531,0.0021c-0.1332,0.0022-0.1678-0.0453-0.1674-0.1725
			C45.2034,39.0432,45.2017,37.8111,45.202,36.5789z"/>
		<path fill="#FFFFFF" d="M33.0899,36.703c0,1.2372-0.0015,2.4744,0.0024,3.7116c0.0004,0.1223-0.0461,0.1521-0.1569,0.1511
			c-0.449-0.0037-0.8979-0.0038-1.3469-0.0001c-0.1119,0.0009-0.1558-0.0315-0.1556-0.1524
			c0.0037-2.4431,0.0035-4.8862,0.0042-7.3294c0.0001-0.2506,0.0003-0.2529-0.2441-0.2532
			c-0.6683-0.0005-1.3365-0.0016-2.0047,0.0044c-0.1304,0.0012-0.1887-0.028-0.1859-0.1725
			c0.008-0.4122,0.0078-0.8249,0.0005-1.2371c-0.0024-0.1353,0.052-0.1706,0.1753-0.1703c2.057,0.0027,4.1139,0.0037,6.1709,0.0013
			c0.1291-0.0001,0.1571,0.0508,0.1553,0.1681c-0.0061,0.4019-0.0112,0.8042,0.0005,1.2058
			c0.0045,0.158-0.0364,0.2073-0.1977,0.2052c-0.6525-0.0083-1.3052-0.0031-1.9577-0.003c-0.261,0-0.2614,0-0.2615,0.2684
			c-0.0002,1.2007-0.0001,2.4014-0.0001,3.602C33.0886,36.703,33.0893,36.703,33.0899,36.703z"/>
		<path fill="#FFFFFF" d="M38.1367,37.6559c0-0.8977-0.0006-1.7954,0.0015-2.693c0.0001-0.0515-0.0354-0.1252,0.0371-0.1517
			c0.062-0.0227,0.0863,0.0488,0.1202,0.0825c0.5377,0.5358,1.0719,1.0753,1.6109,1.6097c0.0764,0.0759,0.1087,0.1512,0.1083,0.2598
			c-0.0036,1.1638-0.0043,2.3277,0.0013,3.4915c0.0007,0.1459-0.0367,0.1979-0.1894,0.2045
			c-0.4952,0.0215-0.9897,0.0599-1.4844,0.0918c-0.2024,0.013-0.2057,0.0109-0.2058-0.1865
			c-0.0004-0.903-0.0001-1.8058-0.0001-2.7087C38.1364,37.6559,38.1365,37.6559,38.1367,37.6559z"/>
		<path fill="#FFFFFF" d="M28.6825,33.4272c-0.0556-0.381-0.1922-0.7359-0.4155-1.0518c-0.4884-0.6913-1.1662-1.0285-2.0049-1.0741
			c-1.4612-0.0793-2.9233-0.0291-4.3849-0.0464c-0.1289-0.0015-0.1711,0.043-0.1709,0.1735
			c0.0038,1.4722,0.0024,2.9446,0.0024,4.4169c0.0002,0,0.0006,0,0.0009,0c0,1.4723,0.0017,2.9446-0.0028,4.4169
			c-0.0005,0.1457,0.045,0.1885,0.1885,0.1863c0.4959-0.0077,0.9921-0.007,1.4879-0.0005c0.1326,0.0017,0.1838-0.0309,0.1832-0.1738
			c-0.0047-1.0233-0.0012-2.0466-0.0008-3.0699c0.0001-0.2251-0.0012-0.2233,0.2233-0.2239
			c0.8871-0.0027,1.7755,0.0259,2.658-0.0974c0.9261-0.1295,1.6047-0.6127,2.0181-1.4495
			C28.7806,34.7951,28.7827,34.1134,28.6825,33.4272z M26.5896,34.8601c-0.1689,0.2285-0.3958,0.3844-0.6756,0.4516
			c-0.3578,0.086-0.724,0.0962-1.089,0.1056c-0.3653,0.0094-0.731,0.0004-1.0964,0.007c-0.1223,0.0023-0.1668-0.0407-0.1653-0.1629
			c0.0048-0.3863,0.0017-0.7726,0.0017-1.159c-0.0002,0-0.0005,0-0.0007,0c0-0.3759,0.0014-0.7518-0.0009-1.1277
			c-0.0006-0.0941,0.0109-0.1656,0.1305-0.1643c0.6835,0.0073,1.3704-0.0421,2.0488,0.0619
			C26.8887,33.0483,27.059,34.2252,26.5896,34.8601z"/>
		<path fill="#FFFFFF" d="M42.31,31.1969c-0.0002,0.0001-0.0005,0.0002-0.0007,0.0002c0.0001-0.0128,0.0121-0.0192-0.0017-0.0397
			c-0.0596-0.0263-0.1231-0.0149-0.1849-0.015c-0.4848-0.001-0.9695,0.0001-1.4542-0.0013
			c-0.0828-0.0002-0.1668,0.0128-0.2486-0.0147c-0.0176-0.0091-0.0321-0.0016-0.0484-0.0037
			c0.0239-0.1979,0.0404-0.3969,0.0749-0.5928c0.0655-0.3715,0.0889-0.7495,0.1751-1.1176
			c0.0221-0.4043,0.1076-0.8002,0.1606-1.2004c0.0427-0.3227,0.0739-0.6482,0.1549-0.9652
			c-0.0254-0.2245,0.0956-0.4382,0.0615-0.6981c-0.0647,0.0895-0.0981,0.1569-0.1135,0.2336
			c-0.0705-0.0188-0.1151,0.0318-0.1282,0.0786c-0.038,0.1354-0.1613,0.2229-0.1898,0.3608
			c-0.0204,0.0433-0.0406,0.0867-0.061,0.1301c-0.1046,0.1343-0.1504,0.302-0.2508,0.4386v-0.0001
			c-0.1798,0.3065-0.3393,0.6236-0.5024,0.9389v0.0001c-0.0408,0.0634-0.0857,0.1243-0.1233,0.1898l-0.0014-0.0012
			c-0.0385,0.0852-0.061,0.1785-0.125,0.2511v-0.0001c-0.1073,0.1316-0.1436,0.3046-0.2541,0.4342
			c-0.0114,0.0323-0.0229,0.0647-0.0343,0.097c-0.0056,0.0659-0.0649,0.1012-0.0889,0.1568l-0.0001,0.0002
			c-0.0362,0.0861-0.0574,0.1799-0.1266,0.2492l-0.0001,0.0002c-0.0987,0.1381-0.1489,0.3033-0.2472,0.4415v0.0001
			c-0.0391,0.0847-0.0615,0.1778-0.1272,0.2489c-0.0927,0.2486-0.2624,0.3435-0.5341,0.3282
			c-0.332-0.0185-0.6668,0.0049-1.0001,0.0168c-0.2702,0.0095-0.5398,0.0289-0.8098,0.0439
			c-0.0868-0.0222-0.1075,0.0105-0.0675,0.0855c0.0719,0.135,0.1465,0.2685,0.2199,0.4027c0.1474,0.313,0.3401,0.6014,0.4921,0.9123
			c0.0282,0.0575,0.062,0.1215,0.1198,0.1637c-0.0224,0.0326-0.0102,0.0823-0.0526,0.1051
			c-0.0417,0.0653-0.0834,0.1305-0.1251,0.1958c-0.0769,0.1502-0.1808,0.2833-0.2698,0.4259
			c-0.0056,0.0825-0.0646,0.1369-0.1044,0.2015l-0.0001,0.0002c-0.0731,0.0985-0.1127,0.2167-0.1857,0.3154h0.0001
			c-0.089,0.1432-0.1807,0.2848-0.2728,0.4261c-0.0571,0.1403-0.15,0.2588-0.2335,0.3829
			c-0.0211,0.0421-0.0421,0.0842-0.0632,0.1262c-0.0346,0.067-0.0757,0.1296-0.1254,0.1864
			c-0.0628,0.1049-0.1254,0.2099-0.1882,0.3148c-0.0335,0.0677-0.077,0.1289-0.1238,0.188
			c-0.0208,0.0421-0.0417,0.0842-0.0624,0.1264c-0.0453,0.1144-0.1681,0.1971-0.1395,0.3415
			c0.0114,0.0047,0.0177-0.0041,0.0284-0.0016c-0.0035,0.0024-0.0062,0.0059-0.0097,0.0084c-0.0326-0.018-0.0628-0.0083-0.082,0.018
			c-0.029,0.0397-0.0826,0.081-0.0428,0.1348c0.0365,0.0496,0.0817,0.0092,0.1238-0.0087c0.067-0.0285,0.1295-0.0629,0.1841-0.1115
			c0.2098-0.1265,0.4194-0.2529,0.6292-0.3794c0.0966-0.0761,0.2249-0.0988,0.3145-0.1867h0.0001
			c0.1006-0.0686,0.2124-0.1191,0.3125-0.1887c0.6113-0.3644,1.2237-0.7267,1.8327-1.095c0.0996-0.0603,0.1671-0.0561,0.2421,0.0323
			c0.3735,0.4394,0.7498,0.8767,1.1252,1.3147c0.0478,0.0548,0.08,0.1223,0.1372,0.1695c0.0247,0.0204,0.054,0.0404,0.0821,0.0114
			s0.0201-0.0597-0.0099-0.0855c0.0194-0.003,0.0391-0.0069,0.0597-0.0382c0.0162-0.0613,0.0092-0.1243,0.0092-0.1865
			c0.0005-0.8611,0.0005-1.7221,0.0002-2.5835c0.0031-0.0256-0.0092-0.0407-0.0158-0.0599
			c0.1156-0.0306,0.1884-0.1338,0.2962-0.1775c0.2712-0.2192,0.5687-0.4007,0.8556-0.5974
			c0.3814-0.2617,0.7528-0.5379,1.1486-0.7781C42.3469,31.261,42.3533,31.2267,42.31,31.1969z"/>
	</g>
</g>
</svg>
